<svg id="Layer_1" data-name="Layer 1" xmlns="http://www.w3.org/2000/svg" width="2in" height="2in" viewBox="0 0 144 144"><title>Artboard 1</title><path d="M105.1,48.9H84.5V43.8h20.6Zm-34.3,21a13.5,13.5,0,0,1,2,7.5,14.9,14.9,0,0,1-2.3,8.2,14.2,14.2,0,0,1-3.6,4,14,14,0,0,1-5.8,2.6,35.6,35.6,0,0,1-7.2.7h-23V41.7H55.5c6.2.1,10.6,1.9,13.2,5.5A13,13,0,0,1,71.1,55a11.4,11.4,0,0,1-2.4,7.5,12,12,0,0,1-3.9,2.9,11.4,11.4,0,0,1,5.9,4.5ZM42.6,61.9H53.5a10.2,10.2,0,0,0,5.4-1.3c1.4-.8,2.1-2.3,2.1-4.5s-.9-4-2.7-4.7a19.4,19.4,0,0,0-6-.8H42.6ZM62,76.7c0-2.7-1.1-4.5-3.3-5.5a12.8,12.8,0,0,0-5.1-.9h-11V84H53.4a12,12,0,0,0,5.2-.9C60.9,82,62,79.8,62,76.7Zm50.7-8.3a48.1,48.1,0,0,1,.3,7.3H86.4q.2,5.5,3.8,7.7a9.7,9.7,0,0,0,5.3,1.4,7.4,7.4,0,0,0,7.3-4.2h9.8a11.9,11.9,0,0,1-3.6,6.6q-4.9,5.3-13.8,5.3A20,20,0,0,1,82.3,88q-5.6-4.5-5.6-14.7t5-14.6q5.1-5.1,13.1-5.1a20.9,20.9,0,0,1,8.6,1.7,14.9,14.9,0,0,1,6.3,5.4,18.1,18.1,0,0,1,2.9,7.6Zm-9.6,1a8,8,0,0,0-2.6-5.8,8.3,8.3,0,0,0-5.7-2,7.6,7.6,0,0,0-5.7,2.1,9.9,9.9,0,0,0-2.6,5.7Zm0,0" fill="#ffc5b5"/></svg>