<svg id="Logo" xmlns="http://www.w3.org/2000/svg" width="144" height="144" viewBox="0 0 144 144"><title>insta-icon</title><path d="M75,39.6c8.9,0,10,0,13.5.2a18.5,18.5,0,0,1,6.2,1.2,11.1,11.1,0,0,1,6.4,6.4,18.5,18.5,0,0,1,1.2,6.2c.2,3.5.2,4.6.2,13.5s0,10-.2,13.5a18.5,18.5,0,0,1-1.2,6.2,11.1,11.1,0,0,1-6.4,6.4,18.5,18.5,0,0,1-6.2,1.2c-3.5.2-4.6.2-13.5.2s-10,0-13.5-.2a18.5,18.5,0,0,1-6.2-1.2,11.1,11.1,0,0,1-6.4-6.4,18.5,18.5,0,0,1-1.2-6.2c-.2-3.5-.2-4.6-.2-13.5s0-10,.2-13.5a18.5,18.5,0,0,1,1.2-6.2,11.1,11.1,0,0,1,6.4-6.4,18.5,18.5,0,0,1,6.2-1.2c3.5-.2,4.6-.2,13.5-.2m0-6c-9.1,0-10.2,0-13.8.2a24.6,24.6,0,0,0-8.1,1.6,17.1,17.1,0,0,0-9.8,9.8,24.6,24.6,0,0,0-1.6,8.1c-.2,3.6-.2,4.7-.2,13.8s0,10.2.2,13.8a24.6,24.6,0,0,0,1.6,8.1,17.1,17.1,0,0,0,9.8,9.8,24.6,24.6,0,0,0,8.1,1.6c3.6.2,4.7.2,13.8.2s10.2,0,13.8-.2a24.6,24.6,0,0,0,8.1-1.6,17.1,17.1,0,0,0,9.8-9.8,24.6,24.6,0,0,0,1.6-8.1c.2-3.6.2-4.7.2-13.8s0-10.2-.2-13.8a24.6,24.6,0,0,0-1.6-8.1,17.1,17.1,0,0,0-9.8-9.8,24.6,24.6,0,0,0-8.1-1.6c-3.6-.2-4.7-.2-13.8-.2Z" fill="#ffc5b5"/><path d="M75,49.8A17.2,17.2,0,1,0,92.2,67,17.2,17.2,0,0,0,75,49.8Zm0,28.3A11.2,11.2,0,1,1,86.2,67,11.2,11.2,0,0,1,75,78.2Z" fill="#ffc5b5"/><circle cx="92.9" cy="49.1" r="4" fill="#ffc5b5"/></svg>