<svg id="Layer_1" data-name="Layer 1" xmlns="http://www.w3.org/2000/svg" xmlns:xlink="http://www.w3.org/1999/xlink" width="11in" height="8.5in" viewBox="0 0 792 612"><defs><clipPath id="clip-path"><circle cx="366" cy="250.9" r="160.8" fill="none"/></clipPath></defs><title>protrait</title><path d="M526.7,254.9c0,88.8-84.1,172.1-172.2,160.4-82.4-10.9-149.4-71.6-149.4-160.4S281.3,87.5,370.1,87.5,526.7,166.1,526.7,254.9Z" fill="#fff"/><path d="M524.4,254.1c-.3,67.5-48.3,132.2-112.1,153.6-61.2,20.5-134.3-6.9-173.1-56.9-40.8-52.6-40.9-126.9-5.9-182.4S336.2,77.9,402.2,92.3s111.5,73.2,120.5,137.4a179.5,179.5,0,0,1,1.7,24.3c0,1.6,4.6,3.2,4.6,1.5C528.8,189,489.7,124,427.4,97.9c-63.9-26.8-136.9-5.2-181.8,46s-57,129.1-21.9,189.6c15.8,27.2,39.8,48.9,67.7,63.3s63.1,23.8,95.6,20.3c69.6-7.6,128.3-68.6,140-136.5a151.1,151.1,0,0,0,2.2-24.9C529.1,254.1,524.4,252.4,524.4,254.1Z" fill="#fbc3b4"/><g clip-path="url(#clip-path)"><path d="M305.8,156.1c-6.1,10.8-11,21.1-10.2,33.8s2.2,28,3.3,42c.1,1.2,3,.5,2.9-.8-1-12.7-2.1-25.5-3.1-38.2-.5-6.4-.6-12.5,1.3-18.6s5.2-12.2,8.5-17.9c.8-1.3-2.2-1.2-2.7-.2Z" fill="#b3e9d5"/><path d="M298.7,231c-4.3,17.1-3.4,33.4,7.1,48.2.5.7,3.2-.4,2.9-.8-10.3-14.7-11.3-30.9-7.1-47.9.2-.7-2.7-.3-2.9.5Z" fill="#b3e9d5"/><path d="M305.8,279.1c4.6,10.7,13.9,18,20.5,27.4.5.7,3.1-.5,2.9-.8-6.6-9.4-15.9-16.7-20.5-27.4-.3-.7-3.1.3-2.9.8Z" fill="#b3e9d5"/><path d="M325.4,305.5c3.6,6.8,6.7,16.4,13.8,20.4s16,5,23.4,4.5c.8,0,3.2-1.3,1.3-1.2-7.2.5-18.8-1.2-24.5-6.1s-8-12.5-11.1-18.4c-.4-.7-3.1.3-2.9.8Z" fill="#b3e9d5"/><path d="M362.8,330.7c7.5,1.4,15.4-3.3,21.7-6.7a112.4,112.4,0,0,0,21-14.8c1.5-1.3-.8-2.5-2-1.4a110.4,110.4,0,0,1-17.4,12.7c-6.1,3.6-15.2,9.3-22.4,8-1.5-.3-2.9,1.9-1,2.2Z" fill="#b3e9d5"/><path d="M306.3,160.2c10.8-16.2,33-22,51.3-22.1s38-.2,52.3,12.3c.9.8,3.6-.4,2.7-1.2a46.8,46.8,0,0,0-25.3-11.4,193.5,193.5,0,0,0-32.6-1.5c-18.5.7-40.3,7.6-51.1,23.7-.8,1.2,2.1,1.1,2.7.2Z" fill="#b3e9d5"/><path d="M410.2,150.8c7.9,11.1,16.1,21.7,19.8,35.1,4.7,16.8,5,34.4,3.7,51.7-.1,1.5,2.8,1.1,2.9-.2,1.4-17.4,1-35.3-3.7-52.2-3.8-13.6-12-24.3-20.1-35.6-.8-1.1-3.5.1-2.7,1.3Z" fill="#b3e9d5"/><path d="M404.9,309.3a65.5,65.5,0,0,0,19.2-25.7c5.3-13.1,7.5-27.9,10.8-41.6.2-.8-2.7-.4-2.9.4-3,12.8-5.3,26.3-9.6,38.7a63.6,63.6,0,0,1-19.7,28c-1.2,1,1.7.7,2.3.3Z" fill="#b3e9d5"/><path d="M433.4,236.1l-1,5.8c-.2,1.4,2.7.9,2.9-.3l1-5.8c.2-1.4-2.7-.9-2.9.3Z" fill="#b3e9d5"/><path d="M340.4,217.6c2.7,6.6,5.7,13.8,3.8,21s-5.8,12.4-8,18.7-1.5,7.3,2.1,11.8,5.8,5.6,10.1,5.8c1.2.1,3-1.7,1.1-1.8-4.5-.2-12.1-6.4-11.9-11.5.1-2.2,1.6-5.2,2.4-7.2s2.6-6.1,4-9.1,3.8-7.8,3.7-12.4-2.3-10.9-4.4-16c-.5-1.1-3.3-.2-2.9.8Z" fill="#b3e9d5"/><path d="M331.4,285.8c1.6,0,2.2-2,.3-2s-2.2,2-.3,2Z" fill="#b3e9d5"/><path d="M330.1,286.1a26.1,26.1,0,0,0,12.9,2.5,35.2,35.2,0,0,1,10.9.4,13.8,13.8,0,0,0,5.4,0c9.4-1.4,20,2.1,28.6-2.8,1.7-1,.2-2.3-1.2-1.5-7.8,4.4-17.3.7-25.8,2.1-4.1.6-7-.7-10.9-.9-6.3-.2-11.5,1.3-17.7-1.5-1-.5-3.6,1-2.3,1.6Z" fill="#b3e9d5"/><path d="M329.5,286.8c2.2,6.9,4.8,14.4,11.3,18.3s11.9,3.8,17.9,3.2a37.5,37.5,0,0,0,29.6-20.1c.3-.6-2.5-.4-2.9.4-5.6,11.1-17.2,18.7-29.7,18.5-5.9-.1-12-1.8-16.1-6.3s-5.5-9.6-7.2-14.8c-.3-.8-3.1,0-2.9.8Z" fill="#b3e9d5"/><path d="M330,287.6c4.1,2.3,7.5,5.7,11.7,7.7s9.3,2,14.1,2.1c10.1.2,19.8-1,28.9-5.6,1.8-.9.2-2.3-1.2-1.6-8.9,4.6-18.4,5.5-28.3,5.2-4.5-.1-8.7-.2-12.7-2.5s-6.6-4.9-10.1-6.9c-1-.6-3.6.8-2.3,1.6Z" fill="#b3e9d5"/><path d="M331.9,288.1a69.4,69.4,0,0,0,24,4.1A123,123,0,0,0,381,289c1.8-.4,1.4-1.7-.4-1.4-15.8,3.5-31,4.4-46.5-.8-.8-.3-3.5,1-2.3,1.4Z" fill="#b3e9d5"/><path d="M368.6,256.6a8.5,8.5,0,0,1,2.9,6.2c-.1,2.4-2,5-4.7,4.1-1-.4-3.4,1.1-1.7,1.7a7.4,7.4,0,0,0,8.3-2.9c2.3-3.4.6-7.6-2.1-10.2-.8-.8-3.5.3-2.7,1.2Z" fill="#b3e9d5"/><path d="M366.4,267.4c-4-2.1-10.5.1-11.7,4.7-.1.5,2.7.2,2.9-.5.8-2.8,3.3-4.6,6.1-3.2a2.6,2.6,0,0,0,1.9-.2c.1,0,1.3-.6.9-.8Z" fill="#b3e9d5"/><path d="M356.1,272.5a12.8,12.8,0,0,0,10.3-1.7c1.6-1.1-.9-1.4-1.8-.8a7.9,7.9,0,0,1-6.7,1c-.9-.2-3.4,1.1-1.8,1.5Z" fill="#b3e9d5"/><path d="M365.7,119.9a115.8,115.8,0,0,0,8.2-9.4c.8-1-2.1-.6-2.7,0l-5.4,6c-.5.5.4.7.8.7a2.6,2.6,0,0,0,1.9-.8l5.4-6h-2.7a115.8,115.8,0,0,1-8.2,9.4c-.5.5.4.7.8.7a2.6,2.6,0,0,0,1.9-.8Z" fill="#b3e9d5"/><path d="M372.9,108.3c-21.2-7.7-44.4-.3-60.1,15.1-18.2,17.9-25.4,43.2-27.8,68-.2,1.6,2.8,1.2,2.9-.2,2.1-22.3,8-44.9,23-62.3s38.3-26.6,60.3-18.6c1.3.5,3.4-1.4,1.6-2.1Z" fill="#b3e9d5"/><path d="M284.8,190.3a117.6,117.6,0,0,0-4.1,80.7c.2.6,3.1-.2,2.9-.8a117.2,117.2,0,0,1,4-80.4c.2-.4-2.5-.2-2.9.5Z" fill="#b3e9d5"/><path d="M280.8,271c3.7,15.1-5,29.8-2.5,45,.1.7,3,.1,2.9-.8-2.5-15.2,6.1-29.8,2.5-45-.2-.8-3.1,0-2.9.8Z" fill="#b3e9d5"/><path d="M408.6,304.8l1.1,7.6c.2,1.2,3.1.5,2.9-.8l-1.1-7.6c-.2-1.2-3.1-.5-2.9.8Z" fill="#b3e9d5"/><path d="M385.7,276.3a14.9,14.9,0,0,1,6.3,8.3c.3,1,3.2.2,2.9-.8a16,16,0,0,0-6.9-8.9c-.8-.5-3.5.7-2.3,1.4Z" fill="#b3e9d5"/><path d="M322.9,276.9a15.9,15.9,0,0,0-1.7,5.5c0,.3,2.8,0,2.9-.8a15.2,15.2,0,0,1,1.6-5.3c.2-.4-1-.2-1.1-.2s-1.5.3-1.7.8Z" fill="#b3e9d5"/><path d="M369.1,208.6c1.3-7.5,9.8-7.8,15.9-8.7,4-.6,8-1.3,12.1-1.6,9.7-.8,17.6,3.6,25.6,8.5.7.4,2.5-.5,1.6-1.1-4.9-3-9.8-6-15.3-7.7s-11.3-1.2-17.2-.4c-8,1.1-22.9.6-24.7,11.2-.2,1,1.9.7,2-.2Z" fill="#b3e9d5"/><path d="M369.2,209.4c8.3-1.7,16.6-3.7,25-5.1s16.9.4,25.1,3.7c.6.2,2.4-.6,1.6-1-7.4-3-15.1-5.1-23.2-4.3-9.6,1-19.3,3.7-28.8,5.7-1.2.3-1,1.2.3,1Z" fill="#b3e9d5"/><path d="M371,207.4l2.2-1.8c.2-.2.2-.3-.1-.4a1.5,1.5,0,0,0-1,.3l-2.2,1.8c-.2.2-.2.3.1.4a1.5,1.5,0,0,0,1-.3Z" fill="#b3e9d5"/><path d="M376,204.8l.4-.4c.2-.2.1-.5-.1-.5a1.2,1.2,0,0,0-1,.3l-.4.4c-.2.2-.1.5.1.5a1.2,1.2,0,0,0,1-.3Z" fill="#b3e9d5"/><path d="M380.3,204.5l2.7-1.8c.2-.2.4-.5.1-.7a1,1,0,0,0-1,.1l-2.7,1.8c-.2.2-.4.5-.1.7a1,1,0,0,0,1-.1Z" fill="#b3e9d5"/><path d="M376.8,202.8l2.2-1.8c.8-.6-.4-1.2-1-.7l-2.2,1.8c-.8.6.4,1.2,1,.7Z" fill="#b3e9d5"/><path d="M384.9,203.3l1.8-.4c.2,0,.7-.2.6-.5s-.6-.1-.8-.1l-1.8.4c-.2,0-.7.2-.6.5s.6.1.8.1Z" fill="#b3e9d5"/><path d="M387.4,203.4h1.3c.3,0,.8-.2.8-.6s-.4-.5-.7-.5h-1.3c-.3,0-.8.2-.8.6s.4.5.7.5Z" fill="#b3e9d5"/><path d="M392.3,200.4l.9-.4c.2-.1.4-.3.2-.4s-.8.1-1,.2l-.9.4c-.2.1-.4.3-.2.4s.8-.1,1-.2Z" fill="#b3e9d5"/><path d="M391.3,201.4l2.2-.4c.2,0,.8-.2.8-.4s-.5-.2-.6-.2l-2.2.4c-.2,0-.8.2-.8.4s.5.2.6.2Z" fill="#b3e9d5"/><path d="M394.7,202.1l5.4-1.4c.9-.2.6-1.1-.2-.9l-5.4,1.4c-.9.2-.6,1.1.2.9Z" fill="#b3e9d5"/><path d="M400.1,200.7h1.8a1,1,0,0,0,.9-.4c.1-.3-.1-.5-.4-.5h-1.8a1,1,0,0,0-.9.4c-.1.3.1.5.4.5Z" fill="#b3e9d5"/><path d="M402.8,201.2h1.3a1,1,0,0,0,.9-.4c.1-.3-.1-.5-.4-.5h-1.3a1,1,0,0,0-.9.4c-.1.3.1.5.4.5Z" fill="#b3e9d5"/><path d="M405.3,202.5h3.1c.8,0,1.1-1,.1-1h-3.1c-.8,0-1.1,1-.1,1Z" fill="#b3e9d5"/><path d="M409.1,202.9h1.3a1.2,1.2,0,0,0,1-.4c.2-.3-.1-.4-.4-.4h-1.3a1.2,1.2,0,0,0-1,.4c-.2.3.1.4.4.4Z" fill="#b3e9d5"/><path d="M413.1,203.8c.6,0,1.5-.9.5-.9s-1.5.9-.5.9Z" fill="#b3e9d5"/><path d="M394.4,199.7l.9.4a1.1,1.1,0,0,0,1-.1c.2-.1.4-.5.1-.6l-.9-.4a1.1,1.1,0,0,0-1,.1c-.2.1-.4.5-.1.6Z" fill="#b3e9d5"/><path d="M386.8,202.9l.9-.9c.2-.2-.2-.4-.4-.4a1.4,1.4,0,0,0-1,.4l-.9.9c-.2.2.2.4.4.4a1.4,1.4,0,0,0,1-.4Z" fill="#b3e9d5"/><path d="M386.1,201.4h.4a1.9,1.9,0,0,0,1-.3c.2-.1.2-.3-.1-.3H387a1.9,1.9,0,0,0-1,.3c-.2.1-.2.3.1.3Z" fill="#b3e9d5"/><path d="M385.4,201c.5,0,1.6-.7.6-.7s-1.6.7-.6.7Z" fill="#b3e9d5"/><path d="M376.7,205l1.3-.9c.3-.2.4-.5.1-.7a1,1,0,0,0-1,.1l-1.3.9c-.3.2-.4.5-.1.7a1,1,0,0,0,1-.1Z" fill="#b3e9d5"/><path d="M375.1,204.7c.6,0,1.5-.9.5-.9s-1.5.9-.5.9Z" fill="#b3e9d5"/><path d="M374.5,203.2l1.8-1.3c.2-.2.4-.5.1-.7a1,1,0,0,0-1,.1l-1.8,1.3c-.2.2-.4.5-.1.7a1,1,0,0,0,1-.1Z" fill="#b3e9d5"/><path d="M374.2,205.3l3.6-.9c.9-.2.6-1.3-.3-1.1l-3.6.9c-.9.2-.6,1.3.3,1.1Z" fill="#b3e9d5"/><path d="M379.4,204l3.6-1.8c.2-.1.4-.4.1-.5s-.8,0-1,.1l-3.6,1.8c-.2.1-.4.4-.1.5s.8,0,1-.1Z" fill="#b3e9d5"/><path d="M381.2,204.4l5.8-2.7c.9-.4-.5-.5-.9-.3l-5.8,2.7c-.9.4.5.5.9.3Z" fill="#b3e9d5"/><path d="M383.9,202.3l4.9-1.3c.1,0,.7-.2.7-.4s-.7-.1-.8,0l-4.9,1.3c-.1,0-.7.2-.7.4s.7.1.8,0Z" fill="#b3e9d5"/><path d="M388,201.5a9,9,0,0,0,4.8-1.1c.3-.1.4-.4.1-.5s-.8,0-1,.1a6.2,6.2,0,0,1-3.3.7c-.5,0-1.5.7-.6.8Z" fill="#b3e9d5"/><path d="M391.3,202.7l4.9-1.8c1-.4.1-.6-.5-.4l-4.9,1.8c-1,.4-.1.6.5.4Z" fill="#b3e9d5"/><path d="M392.7,202a22,22,0,0,0,7.7-2.5c.9-.5-.4-.7-.9-.4a18.8,18.8,0,0,1-6.6,2.1c-.7.1-1.2.9-.2.8Z" fill="#b3e9d5"/><path d="M399.9,200.2l4.5-.5c.7-.1,1.2-.9.2-.8l-4.5.5c-.7.1-1.2.9-.2.8Z" fill="#b3e9d5"/><path d="M401.2,201.6l4.5-.5c.8-.1,1.2-1,.2-.9l-4.5.5c-.8.1-1.2,1-.2.9Z" fill="#b3e9d5"/><path d="M407.6,201.3l1.8-.4c.1,0,.7-.2.7-.4s-.7,0-.8,0l-1.8.4c-.1,0-.7.2-.7.4s.7,0,.8,0Z" fill="#b3e9d5"/><path d="M409.2,200.9a8.5,8.5,0,0,0,4.4-.5c.2-.1.6-.2.4-.4s-.8,0-.9.1a5.2,5.2,0,0,1-2.7.3,1.7,1.7,0,0,0-1,.2c-.1.1-.5.3-.2.4Z" fill="#b3e9d5"/><path d="M410.4,201.9h4.5c.4,0,1.6-.7.6-.7H411c-.4,0-1.6.7-.6.7Z" fill="#b3e9d5"/><path d="M412.6,202.4c.5,0,1.6-.7.6-.7s-1.6.7-.6.7Z" fill="#b3e9d5"/><path d="M379.2,202.7l1.8-.9c.2-.1.6-.4.4-.7s-.7-.2-1-.1l-1.8.9c-.2.1-.6.4-.4.7s.7.2,1,.1Z" fill="#b3e9d5"/><path d="M378.9,204.8c.8,0,1.1-1.1.1-1.1s-1.1,1.1-.1,1.1Z" fill="#b3e9d5"/><path d="M376.6,206.8l4.9-2.2c.9-.4.1-1-.6-.6l-4.9,2.2c-.9.4-.1,1,.6.6Z" fill="#b3e9d5"/><path d="M384.4,203.8a27.8,27.8,0,0,0,6-1.9c.9-.4.1-.9-.6-.6a25.9,25.9,0,0,1-5.6,1.8c-.9.2-.7.9.2.7Z" fill="#b3e9d5"/><path d="M390.2,203.3l5.8-1.8c.9-.3.6-1.1-.2-.9l-5.8,1.8c-.9.3-.6,1.1.2.9Z" fill="#b3e9d5"/><path d="M396.3,201.6l7.6-1.4c.7-.1,1.1-1.1.2-1l-7.6,1.4c-.7.1-1.1,1.1-.2,1Z" fill="#b3e9d5"/><path d="M400,201.8l5.4-1.3c.9-.2.7-.7-.1-.5l-5.4,1.3c-.9.2-.7.7.1.5Z" fill="#b3e9d5"/><path d="M404.7,203.1a24.5,24.5,0,0,1,5.4-1.2c.6-.1,1.3-.8.2-.7a28,28,0,0,0-6.2,1.4c-1,.3-.1.7.5.5Z" fill="#b3e9d5"/><path d="M410.3,203.2a7.5,7.5,0,0,1,3.5-1.2c.8-.1,1.1-1.1.1-1a9.9,9.9,0,0,0-4.6,1.6.4.4,0,0,0-.1.7,1,1,0,0,0,1-.1Z" fill="#b3e9d5"/><path d="M411.5,203.6a9.8,9.8,0,0,0,4.4-1.1c.9-.5.1-1.3-.7-.9a7.9,7.9,0,0,1-3.6.9c-.9,0-1.1,1.2-.1,1.1Z" fill="#b3e9d5"/><path d="M413.8,204.1h1.8a2,2,0,0,0,1-.3c.2-.1.2-.3-.1-.3h-1.8a2,2,0,0,0-1,.3c-.2.1-.2.3.1.3Z" fill="#b3e9d5"/><path d="M381.6,201.8l2.2-1.3c.2-.1.4-.4.1-.6a1.2,1.2,0,0,0-1,.1l-2.2,1.3c-.2.1-.4.4-.1.6a1.2,1.2,0,0,0,1-.1Z" fill="#b3e9d5"/><path d="M382.5,201.8c.3,0,1.6-.6.9-.6s-1.6.6-.9.6Z" fill="#b3e9d5"/><path d="M373.8,205.9c-.4.2-1.2-.2-1.5-.5a2.1,2.1,0,0,1-.8-1.3c-.1-.3-1.5,0-1.4.4.4,2.2,3.2,2.4,4.8,1.5s.1-.3-.1-.3a1.7,1.7,0,0,0-1,.3Z" fill="#b3e9d5"/><path d="M373.2,205.3a4.5,4.5,0,0,1-1.5-3.7c.1-.7-1.4-.5-1.5.1a5.3,5.3,0,0,0,1.8,4.5c.5.4,1.7-.3,1.1-.8Z" fill="#b3e9d5"/><path d="M374.7,204.5l-.4-1.3c-.2-.7-1.7-.3-1.4.4l.4,1.3c.2.7,1.7.3,1.4-.4Z" fill="#b3e9d5"/><path d="M371.5,207.2l-.4-2.7c-.1-.6-1.5-.2-1.4.4l.4,2.7c.1.6,1.5.2,1.4-.4Z" fill="#b3e9d5"/><path d="M375.5,204.8l3.1-2.2c.3-.2.1-.4-.1-.5a1.3,1.3,0,0,0-1,.3l-3.1,2.2c-.3.2-.1.4.1.5a1.3,1.3,0,0,0,1-.3Z" fill="#b3e9d5"/><path d="M384.1,201.8l4-1.8c.9-.4.1-.8-.6-.5l-4,1.8c-.9.4-.1.8.6.5Z" fill="#b3e9d5"/><path d="M393.1,201.1l6.7-2.7c.9-.4.1-1.2-.6-.9l-6.7,2.7c-.9.4-.1,1.2.6.9Z" fill="#b3e9d5"/><path d="M400.7,199.7l2.2-.4c.2,0,.8-.2.8-.4s-.5-.2-.6-.2l-2.2.4c-.2,0-.8.2-.8.4s.5.2.6.2Z" fill="#b3e9d5"/><path d="M407,201.9l4.9-.9c.6-.1,1.3-.8.3-.6l-4.9.9c-.6.1-1.3.8-.3.6Z" fill="#b3e9d5"/><path d="M412.9,203.4h.4c.3,0,.8-.2.8-.6s-.4-.4-.7-.4H413c-.3,0-.8.2-.8.6s.4.4.7.4Z" fill="#b3e9d5"/><path d="M414.9,204.6h2.7c.3,0,.8-.1,1-.4s-.1-.3-.4-.3h-2.7c-.3,0-.8.1-1,.4s.1.3.4.3Z" fill="#b3e9d5"/><path d="M298.8,203.3c6.8-2.9,14.7-3.6,22.1-3.5s11,4.3,15.6,9.9c.4.5,2.1-.4,2-.5-2.6-3.1-5.4-7-9-8.9s-7.1-1.2-10.6-1.1c-7.3.3-14.4,1.1-21.2,4-1.2.5.7.4,1.2.2Z" fill="#b3e9d5"/><path d="M337.8,209.3c-6.8.1-13.7-2.3-20.6-2.6a93.5,93.5,0,0,0-18.8,1.3c-.8.1-1.8,1-.4.7a88.9,88.9,0,0,1,21.5-.9c5.6.5,11.3,2.4,16.9,2.3.4,0,2.3-.8,1.3-.8Z" fill="#b3e9d5"/><path d="M331.9,204.5l-3.2-3.4c-.3-.3-1.6.2-1.4.5l3.2,3.4c.3.3,1.6-.2,1.4-.5Z" fill="#b3e9d5"/><path d="M328.1,204.3l-2.2-1a1.4,1.4,0,0,0-.9.1c-.1,0-.7.3-.4.4l2.2,1a1.4,1.4,0,0,0,.9-.1c.1,0,.7-.3.4-.4Z" fill="#b3e9d5"/><path d="M325.8,205.4l-2.5-1.3a1.2,1.2,0,0,0-1,.1c-.2.1-.4.4-.1.6l2.5,1.3a1.2,1.2,0,0,0,1-.1c.2-.1.4-.4.1-.6Z" fill="#b3e9d5"/><path d="M320.5,203a17.4,17.4,0,0,0-4.9-.3c-.8.1-1.1,1.1-.1,1.1a16,16,0,0,1,4.5.3c.7.1,1.5-.9.5-1.1Z" fill="#b3e9d5"/><path d="M311.8,202.4h-3.8c-.8,0-1.1,1.1-.1,1.1h3.8c.8,0,1.1-1.1.1-1.1Z" fill="#b3e9d5"/><path d="M306.7,205.1l-4-1.6a1.1,1.1,0,0,0-1,.1c-.2.1-.5.5-.1.6l4,1.6a1.1,1.1,0,0,0,1-.1c.2-.1.5-.5.1-.6Z" fill="#b3e9d5"/><path d="M311.8,204.2a3.6,3.6,0,0,1-2.4-.6c-.2-.1-.7,0-.9.1s-.6.3-.4.4a4.7,4.7,0,0,0,3.2.7c.3,0,.8-.1,1-.3s-.1-.2-.3-.2Z" fill="#b3e9d5"/><path d="M314.8,204.4l-1.5-1.3c-.5-.4-1.8.3-1.1.8l1.5,1.3c.5.4,1.8-.3,1.1-.8Z" fill="#b3e9d5"/><path d="M315.5,201.6h-2.8c-.3,0-.8.1-1,.4s.1.4.4.4h2.8c.3,0,.8-.1,1-.4s-.1-.4-.4-.4Z" fill="#b3e9d5"/><path d="M321,201.5l-3.1-.7a1.2,1.2,0,0,0-1,.3c-.2.2-.2.5.2.6l3.1.7a1.2,1.2,0,0,0,1-.3c.2-.2.2-.5-.2-.6Z" fill="#b3e9d5"/><path d="M324.6,201.3h-2.5a1.4,1.4,0,0,0-1,.4c-.2.3.2.3.4.3H324a1.4,1.4,0,0,0,1-.4c.2-.3-.2-.3-.4-.3Z" fill="#b3e9d5"/><path d="M331,206.8a4.5,4.5,0,0,0-2.9-2.5,1,1,0,0,0-1,.3.5.5,0,0,0,.2.7,3.5,3.5,0,0,1,2.2,1.8c.3.7,1.7.2,1.4-.4Z" fill="#b3e9d5"/><path d="M333.4,206.9l-1.3-1.9c-.3-.5-2.3.1-1.9.8l1.3,1.9c.3.5,2.3-.1,1.9-.8Z" fill="#b3e9d5"/><path d="M321.8,205.2l-3.1-1.3a1.4,1.4,0,0,0-.9.1c-.1,0-.7.3-.4.4l3.1,1.3a1.4,1.4,0,0,0,.9-.1c.1,0,.7-.3.4-.4Z" fill="#b3e9d5"/><path d="M316.3,205.1l-2.8-.3a1.4,1.4,0,0,0-1,.3c-.2.2-.2.4.1.4l2.8.3a1.4,1.4,0,0,0,1-.3c.2-.2.2-.4-.1-.4Z" fill="#b3e9d5"/><path d="M325.5,202.9l-3.8-.9a1.7,1.7,0,0,0-1,.2c-.1.1-.5.3-.2.3l3.8.9a1.7,1.7,0,0,0,1-.2c.1-.1.5-.3.2-.3Z" fill="#b3e9d5"/><path d="M326.5,201.9a7.8,7.8,0,0,0-3.8-.9c-.3,0-.8.1-1,.4s.1.5.4.5a6.5,6.5,0,0,1,3.2.8c.4.2,1.8-.4,1.1-.7Z" fill="#b3e9d5"/><path d="M312.6,201.5a11.3,11.3,0,0,0-5.2.5c-.8.3-.7,1,.2.7a8.9,8.9,0,0,1,4.2-.4,1.2,1.2,0,0,0,1-.3c.2-.2.2-.5-.1-.5Z" fill="#b3e9d5"/><path d="M305.1,202.1l-3.4.9c-.9.2-.6,1.3.3,1l3.4-.9c.9-.2.6-1.3-.3-1Z" fill="#b3e9d5"/><path d="M304.4,205.5h-3.1a1.6,1.6,0,0,0-1.3.6c-.2.4.2.6.5.6h3.1a1.6,1.6,0,0,0,1.3-.6c.2-.4-.2-.6-.5-.6Z" fill="#b3e9d5"/><path d="M309.5,203.4a5,5,0,0,1-2.8-1.2c-.5-.4-1.7.3-1.1.8a6.1,6.1,0,0,0,3.4,1.4,1,1,0,0,0,.9-.4c.1-.3-.1-.6-.4-.6Z" fill="#b3e9d5"/><path d="M308.8,204.8l-3.7-.7a1.2,1.2,0,0,0-1,.3c-.2.2-.2.5.1.5l3.7.7a1.2,1.2,0,0,0,1-.3c.2-.2.2-.5-.1-.5Z" fill="#b3e9d5"/><path d="M305.3,205.4a14.7,14.7,0,0,1-4.5-.2c-.8-.2-1.4.9-.5,1.1a16,16,0,0,0,4.9.3c.8-.1,1.1-1.2.1-1.1Z" fill="#b3e9d5"/><path d="M318.1,204.8l-1.3-1.3c-.2-.2-1.6.3-1.4.5l1.3,1.3c.2.2,1.6-.3,1.4-.5Z" fill="#b3e9d5"/><path d="M322.4,205l-2.8-1.2a1.3,1.3,0,0,0-1,.2c-.2.1-.5.4-.1.5l2.8,1.2a1.3,1.3,0,0,0,1-.2c.2-.1.5-.4.1-.5Z" fill="#b3e9d5"/><path d="M327.7,205.7l-2.2-.6a1.4,1.4,0,0,0-1,.2c-.1.1-.5.4-.2.5l2.2.6a1.4,1.4,0,0,0,1-.2c.1-.1.5-.4.2-.5Z" fill="#b3e9d5"/><path d="M332.4,207.2l-.6-.9c-.5-.7-2.4,0-1.9.9l.6.9c.5.7,2.4,0,1.9-.9Z" fill="#b3e9d5"/><path d="M334.4,208.3a3.3,3.3,0,0,0-1.5-2.5c-.7-.4-2.5.5-1.6,1.1a2.4,2.4,0,0,1,1.1,1.9c0,.5.9.4,1.2.4s.9-.4.8-.9Z" fill="#b3e9d5"/><path d="M327.4,203.1l-2.2-1.5c-.4-.3-1.7.3-1.1.7l2.2,1.5c.4.3,1.7-.3,1.1-.7Z" fill="#b3e9d5"/><path d="M326.6,206a12.9,12.9,0,0,1-4.6-1.3c-.4-.2-1.7.4-1.2.6a13.7,13.7,0,0,0,4.8,1.3,1.3,1.3,0,0,0,1-.3c.2-.2.2-.4-.1-.4Z" fill="#b3e9d5"/><path d="M319.1,204.1l-6.9-1.3c-.4-.1-1.7.6-.9.7l6.9,1.3c.4.1,1.7-.6.9-.7Z" fill="#b3e9d5"/><path d="M313.1,203.1l-3.8.6c-.2,0-.8.2-.8.5s.4.3.6.3l3.8-.6c.2,0,.8-.2.8-.5s-.4-.3-.6-.3Z" fill="#b3e9d5"/><path d="M320,200.3l-3.4-.6a1.1,1.1,0,0,0-1,.3c-.2.2-.2.6.2.6l3.4.6a1.1,1.1,0,0,0,1-.3c.2-.2.2-.6-.2-.6Z" fill="#b3e9d5"/><path d="M313.5,202.1a25.2,25.2,0,0,0-6-.3c-.7,0-1.2.9-.2.9a22.4,22.4,0,0,1,5.3.3c.5.1,1.7-.7.9-.8Z" fill="#b3e9d5"/><path d="M305.9,202.1h-3.4c-.8,0-1.1,1-.1,1h3.4c.8,0,1.1-1,.1-1Z" fill="#b3e9d5"/><path d="M302.3,202.8a14.1,14.1,0,0,0-4,1.1c-.2.1-.8.4-.6.7s1.1,0,1.3-.1a10.1,10.1,0,0,1,2.9-.8c.3,0,1.1-.2,1.2-.6s-.6-.3-.8-.3Z" fill="#b3e9d5"/><path d="M319.7,205.1a6,6,0,0,0-2.7-1,1.6,1.6,0,0,0-1,.3c-.2.2-.2.3.1.3a5.1,5.1,0,0,1,2.3.9c.2.2.7,0,.9-.1s.6-.3.4-.4Z" fill="#b3e9d5"/><path d="M317.2,204.4l-1.9.3c-.2,0-.8.2-.8.5s.4.3.6.3l1.9-.3c.2,0,.8-.2.8-.5s-.4-.3-.6-.3Z" fill="#b3e9d5"/><path d="M373.4,110.9c10.7-4.3,21.9-1.2,31.7,4a113.4,113.4,0,0,1,21,14c12.1,10.5,16.1,26.5,17.6,41.8.1.9,3,.3,2.9-.8-.9-9.3-2.6-18.7-6.7-27.2s-10.1-14.7-17.7-20c-14.6-10.1-31.9-20.3-49.9-13-1.9.8-.2,1.6,1.1,1.1Z" fill="#b3e9d5"/><path d="M435,139.8c21.8,26.2,19.3,62,23.1,93.8.2,1.4,3.1.7,2.9-.8-3.8-32-1.4-68-23.4-94.3-.9-1-3.6.1-2.6,1.3Z" fill="#b3e9d5"/><path d="M457.6,232.5c8.3,42.9-11.4,83.7-19.1,125.1-.2,1.2,2.7.7,2.9-.3,7.8-41.5,27.5-82.5,19.1-125.5-.2-1.1-3.1-.3-2.9.8Z" fill="#b3e9d5"/><path d="M438.8,357.1a250.1,250.1,0,0,1-14.1,36.4c-.7,1.4,2.3,1.2,2.7.2a253.5,253.5,0,0,0,14.3-36.9c.4-1.2-2.6-.8-2.9.3Z" fill="#b3e9d5"/><path d="M278.1,315.7l6.6,67.2c.1.7,3,.1,2.9-.8L281,314.9c-.1-.7-3-.1-2.9.8Z" fill="#b3e9d5"/><path d="M365.9,116.3a127,127,0,0,0-15.4,20.5c-.8,1.4,2.1,1.4,2.8.3a124,124,0,0,1,15.1-20c1.2-1.3-1.5-1.8-2.4-.9Z" fill="#b3e9d5"/><path d="M356.1,128.7l-1.5,2.9c-.6,1.3,2.3,1,2.7.1l1.5-2.9c.6-1.3-2.3-1-2.7-.1Z" fill="#b3e9d5"/><path d="M358,132.8c9.5-6.1,22.1-4.6,32.8-3.1s20.3,4.8,25.4,14.7,6.9,20.1,9.9,30l10.7,35.4c.3,1,3.2.2,2.9-.8L426.9,167c-3.2-10.7-5.4-24.5-14.7-31.8-7.7-6.1-18.2-7-27.6-7.8s-19.9-.8-28.5,4.7c-1.6,1.1.9,1.4,1.8.8Z" fill="#b3e9d5"/><path d="M435.9,209.4c1.8,11.6,4.7,23.2,5.2,35.1a62.6,62.6,0,0,1-7.6,32.4c-8.9,16.6-22.4,30.3-30.4,47.5-.4.8,2.5.5,2.9-.4,8.4-18,22.9-32.1,31.7-49.9,10.5-21.4,4.7-43,1.2-65.4-.1-.9-3.1-.2-2.9.8Z" fill="#b3e9d5"/><path d="M403.4,323.5c-8,9.4-10.4,21.6-10.5,33.6-.1,15.3,2.9,30.6,7.7,45.1.3,1,3.2.1,2.9-.8a147.4,147.4,0,0,1-7.6-42c-.4-12.8,1.7-26,10.2-36,.8-.9-2.1-.7-2.7,0Z" fill="#b3e9d5"/><path d="M458.7,270.9A111.6,111.6,0,0,0,480,344.4c.8,1.1,3.6-.1,2.6-1.3a109.9,109.9,0,0,1-21-72.3c.1-1.6-2.8-1.2-2.9.2Z" fill="#b3e9d5"/><path d="M284.5,383.4l1,8.7c.1,1.4,3.1.6,2.9-.8l-1-8.7c-.1-1.4-3.1-.6-2.9.8Z" fill="#b3e9d5"/><path d="M335.3,324.1c4.5,12.9-.2,26.9,9.1,38.2,7.4,9,19.1,12.1,30.2,9.6,1.8-.4,1.4-1.8-.4-1.4a27.6,27.6,0,0,1-31-15.5c-4.6-10-1.5-21.5-5.1-31.8-.3-1-3.2-.2-2.9.8Z" fill="#b3e9d5"/><path d="M374.7,372.1a72.9,72.9,0,0,0,18.1-4.8c1.8-.7.2-2.2-1.3-1.6a66.7,66.7,0,0,1-16.6,4.4c-1.6.2-2.3,2.3-.3,2Z" fill="#b3e9d5"/><path d="M359.8,125.8c-3.7-3.1-9.4-1.2-13.6,0a60,60,0,0,0-17.8,8.7c-1.2.8,1.7.5,2.2.1a56.8,56.8,0,0,1,10.1-5.8c4.1-1.8,12.4-5.3,16.4-2,.6.5,3.2-.6,2.7-1Z" fill="#b3e9d5"/><path d="M353.8,118.7c-15.9-.7-26.9,10.8-36.6,21.9-1.2,1.4,1.6,1.8,2.4.8,8.6-9.9,18.8-21.2,33.1-20.6,1.4.1,3-2,1-2.1Z" fill="#b3e9d5"/><path d="M345,114.2c-22.5.4-39.5,22.3-51.2,39.2-.7,1.1,2.2.8,2.7,0a156.5,156.5,0,0,1,19.1-23c7.7-7.6,17-14.4,28.3-14.7,1.1,0,3.1-1.6,1.1-1.6Z" fill="#b3e9d5"/><path d="M306.7,144.1c-5.7,4.2-8.7,12-11.7,18.2a179,179,0,0,0-9,22.7c-.4,1.1,2.6.8,2.9-.3a175.7,175.7,0,0,1,8.1-20.6c2.8-6.1,6.1-14.9,11.6-18.9,1.6-1.2-.8-1.7-1.8-1Z" fill="#b3e9d5"/><path d="M288.7,214.4a104.5,104.5,0,0,0,1.7,48.6c.3,1.1,3.2.4,2.9-.8a103.5,103.5,0,0,1-1.7-48.1c.2-1.2-2.7-.8-2.9.3Z" fill="#b3e9d5"/><path d="M292.2,284.5a129.1,129.1,0,0,0,16.5,83.6c.5.8,3.3-.1,2.7-1.1a128.2,128.2,0,0,1-16.3-82.9c.2-1.1-2.8-.6-2.9.4Z" fill="#b3e9d5"/><path d="M314.9,379.8l-1,6.8c-.2,1.2,2.8.7,2.9-.3l1-6.8c.2-1.2-2.8-.7-2.9.3Z" fill="#b3e9d5"/><path d="M307.5,310.4l10.9,41c.3,1,3.2.2,2.9-.8l-10.9-41c-.3-1-3.2-.2-2.9.8Z" fill="#b3e9d5"/><path d="M293.6,358.7q2.3,19.5,3,39.1c0,.4,2.9,0,2.9-.8q-.7-19.6-3-39.1c-.1-.5-3,.1-2.9.8Z" fill="#b3e9d5"/><path d="M285.5,391.1v8.7c0,.8,2.9.3,2.9-.8v-8.7c0-.8-2.9-.3-2.9.8Z" fill="#b3e9d5"/><path d="M368.3,121.3c23.7-6.9,48.5,4.4,59.7,26,.4.7,3.2-.3,2.9-.8-12-23-38.2-33.4-62.9-26.2-1.7.5-1.5,1.5.3,1Z" fill="#b3e9d5"/><path d="M363.5,113.7a19.8,19.8,0,0,0-6.5-2,2.9,2.9,0,0,0-2,.5c-.4.4-.4.7.2.8a18.3,18.3,0,0,1,6,1.9c.7.3,3.4-.7,2.4-1.2Z" fill="#b3e9d5"/><path d="M429.6,306.6c-18.3,22.4-14.2,52.4-6.9,78.2.2.9,3.1.1,2.9-.8-7.2-25.5-11.5-55.4,6.7-77.5.7-.9-2.1-.6-2.7.1Z" fill="#b3e9d5"/><path d="M457.8,341.9c2.4,7.6,6.4,14.5,8.9,22.1a121.9,121.9,0,0,1,5.3,24.2c.1.8,3,.2,2.9-.8a121.9,121.9,0,0,0-5.3-24.2c-2.5-7.6-6.5-14.5-8.9-22.1-.3-.9-3.2-.1-2.9.8Z" fill="#b3e9d5"/><path d="M456.8,351.7l-12.2,45.5c-.2.8,2.7.4,2.9-.4l12.2-45.5c.2-.8-2.7-.4-2.9.4Z" fill="#b3e9d5"/><path d="M441.4,211.4a108.1,108.1,0,0,1,3.2,45.9c0,.3,2.8.1,2.9-.8a108.1,108.1,0,0,0-3.2-45.9c-.2-.7-3.1.1-2.9.8Z" fill="#b3e9d5"/><path d="M338.5,349.2c1.9,12.8,3.7,26.2,2.7,39.2-.1,1.5,2.8,1.1,2.9-.2,1-13.1-.8-26.8-2.7-39.8-.2-1.3-3.1-.6-2.9.8Z" fill="#b3e9d5"/><path d="M322.1,357.3l5.3,27.6c.3,1.4,3.2.6,2.9-.8L325,356.5c-.3-1.4-3.2-.6-2.9.8Z" fill="#b3e9d5"/><path d="M298.2,293.2a147.6,147.6,0,0,0,1.4,25.4c.2,1.4,3.1.7,2.9-.8a144.3,144.3,0,0,1-1.3-24.8c.1-1.6-2.9-1.2-2.9.2Z" fill="#b3e9d5"/><path d="M377.1,114.4a48,48,0,0,1,14.4.5c.7.1,3.2-1,2.4-1.2a51.8,51.8,0,0,0-15.5-.5c-.8.1-3.1,1.4-1.2,1.2Z" fill="#b3e9d5"/><path d="M443.4,269.5a209.8,209.8,0,0,1-1.4,43c-.2,1.5,2.8,1.1,2.9-.2a209.8,209.8,0,0,0,1.4-43c-.1-1.5-3-1.1-2.9.2Z" fill="#b3e9d5"/><path d="M464,334.1a41.3,41.3,0,0,0,17.5,26.3c.8.5,3.5-.6,2.3-1.4a40.3,40.3,0,0,1-16.9-25.7c-.2-1-3.1-.3-2.9.8Z" fill="#b3e9d5"/><path d="M459,369.6q-.2,10.7-1.5,21.3c-.1,1.2,2.8.7,2.9-.4q1.3-10.6,1.5-21.3c0-1.2-2.9-.6-2.9.4Z" fill="#b3e9d5"/><path d="M451.8,326.8c1.1,5-.1,9.9-1.1,14.9s-1.9,9.6-2.9,14.3q-3.1,14.8-6.9,29.4c-.4,1.4,2.6,1.1,2.9-.2q4-15.6,7.3-31.4c1.8-8.7,5.5-19,3.5-27.9-.3-1.3-3.2-.6-2.9.8Z" fill="#b3e9d5"/><path d="M436.9,326.1a155.5,155.5,0,0,1-7.5,24.3c-.6,1.6,2.3,1.6,2.8.4a159.1,159.1,0,0,0,7.6-24.9c.3-1.5-2.6-1.1-2.9.2Z" fill="#b3e9d5"/><path d="M403.4,344.8a46.8,46.8,0,0,0,4.5,31c.6,1.2,3.4.1,2.6-1.3a45.3,45.3,0,0,1-4.2-29.9c.3-1.5-2.7-1.2-2.9.2Z" fill="#b3e9d5"/><path d="M447.7,188.2l1.5,14c.1,1.1,3,.4,2.9-.8l-1.5-14c-.1-1.1-3-.4-2.9.8Z" fill="#b3e9d5"/><path d="M311.7,223.7c5.2-4.9,13.6-7.6,19.6-2.7,2.5,2,4.6,4.2,7.4,5.7.8.4,3.5-.7,2.3-1.4-5.5-3-8.8-9.1-15.7-9s-12,3.3-15.9,6.9c-1.2,1.1,1.6,1,2.3.4Z" fill="#b3e9d5"/><path d="M308.7,224.2c3.5,13.3,23,6.3,31.3,3.2,1.9-.7.2-2-1.2-1.5-7.5,2.8-24.2,9-27.2-2.5-.3-1.2-3.2-.4-2.9.8Z" fill="#b3e9d5"/><path d="M375.1,228.7c9.6-6.8,23.5-14.3,32.7-2.7.7.9,3.5-.2,2.7-1.2-10.2-13-26.6-4.7-37.2,2.8-1.6,1.1.8,1.8,1.8,1Z" fill="#b3e9d5"/><path d="M372.7,228.6c5.5,4.7,14.1,4.1,20.9,3.7s12.2-2,16.6-6.5c.5-.5-2.1-.2-2.6.3-6.4,6.4-24.6,8-32.2,1.5-.6-.5-3.1.7-2.7,1Z" fill="#b3e9d5"/><path d="M382.6,215.8c7.6-4.9,18.4-2.5,25.7,2.2.8.5,3.3-.7,2.7-1-9.3-5.8-21.3-7.4-30.7-1.4-1.3.8,1.6.6,2.3.2Z" fill="#b3e9d5"/><path d="M333.9,214.3c-7.9-5.8-20.5-5.3-25.9,3.5-.8,1.4,2.1,1.5,2.8.4,4.4-7.1,14.8-6.6,20.9-2.1,1.1.8,3.6-.7,2.2-1.7Z" fill="#b3e9d5"/><ellipse cx="394.1" cy="225.6" rx="6.2" ry="6.1" transform="translate(-29.1 60.8) rotate(-8.5)" fill="#b3e9d5"/><ellipse cx="394.1" cy="225.6" rx="3.1" ry="3.1" transform="translate(-29.1 60.8) rotate(-8.5)" fill="#fff"/><ellipse cx="325.8" cy="224" rx="6.2" ry="6.1" transform="translate(-29.6 50.7) rotate(-8.5)" fill="#b3e9d5"/><ellipse cx="325.8" cy="224" rx="3.1" ry="3.1" transform="matrix(0.99, -0.15, 0.15, 0.99, -29.57, 50.71)" fill="#fff"/></g></svg>