<svg id="Layer_1" data-name="Layer 1" xmlns="http://www.w3.org/2000/svg" width="1in" height="1in" viewBox="0 0 72 72"><title>waves</title><path d="M20.2,59.6s-3.5,7.4-8.3.9h0c-4.8-6.5-8.3.9-8.3.9" fill="none" stroke="#c7e7ed" stroke-miterlimit="10" stroke-width="0.96"/><path d="M36.1,59.1s-3.5,7.4-8.3.9h0c-4.8-6.5-8.3.9-8.3.9" fill="none" stroke="#c7e7ed" stroke-miterlimit="10" stroke-width="0.96"/><path d="M51.6,59.1s-3.5,7.4-8.3.9h0c-4.8-6.5-8.3.9-8.3.9" fill="none" stroke="#c7e7ed" stroke-miterlimit="10" stroke-width="0.96"/><path d="M67.5,58.6s-3.5,7.4-8.3.9h0c-4.8-6.5-8.3.9-8.3.9" fill="none" stroke="#c7e7ed" stroke-miterlimit="10" stroke-width="0.96"/><path d="M20.2,50.6s-3.5,7.4-8.3.9h0c-4.8-6.5-8.3.9-8.3.9" fill="none" stroke="#c7e7ed" stroke-miterlimit="10" stroke-width="0.96"/><path d="M36.1,50.1s-3.5,7.4-8.3.9h0c-4.8-6.5-8.3.9-8.3.9" fill="none" stroke="#c7e7ed" stroke-miterlimit="10" stroke-width="0.96"/><path d="M51.6,50.1s-3.5,7.4-8.3.9h0c-4.8-6.5-8.3.9-8.3.9" fill="none" stroke="#c7e7ed" stroke-miterlimit="10" stroke-width="0.96"/><path d="M67.5,49.6s-3.5,7.4-8.3.9h0c-4.8-6.5-8.3.9-8.3.9" fill="none" stroke="#c7e7ed" stroke-miterlimit="10" stroke-width="0.96"/><path d="M20.2,41.6s-3.5,7.4-8.3.9h0c-4.8-6.5-8.3.9-8.3.9" fill="none" stroke="#c7e7ed" stroke-miterlimit="10" stroke-width="0.96"/><path d="M36.1,41.1s-3.5,7.4-8.3.9h0c-4.8-6.5-8.3.9-8.3.9" fill="none" stroke="#c7e7ed" stroke-miterlimit="10" stroke-width="0.96"/><path d="M51.6,41.1s-3.5,7.4-8.3.9h0c-4.8-6.5-8.3.9-8.3.9" fill="none" stroke="#c7e7ed" stroke-miterlimit="10" stroke-width="0.96"/><path d="M67.5,40.6s-3.5,7.4-8.3.9h0c-4.8-6.5-8.3.9-8.3.9" fill="none" stroke="#c7e7ed" stroke-miterlimit="10" stroke-width="0.96"/><path d="M20.2,32.6s-3.5,7.4-8.3.9h0c-4.8-6.5-8.3.9-8.3.9" fill="none" stroke="#c7e7ed" stroke-miterlimit="10" stroke-width="0.96"/><path d="M36.1,32.1s-3.5,7.4-8.3.9h0c-4.8-6.5-8.3.9-8.3.9" fill="none" stroke="#c7e7ed" stroke-miterlimit="10" stroke-width="0.96"/><path d="M51.6,32.1s-3.5,7.4-8.3.9h0c-4.8-6.5-8.3.9-8.3.9" fill="none" stroke="#c7e7ed" stroke-miterlimit="10" stroke-width="0.96"/><path d="M67.5,31.6s-3.5,7.4-8.3.9h0c-4.8-6.5-8.3.9-8.3.9" fill="none" stroke="#c7e7ed" stroke-miterlimit="10" stroke-width="0.96"/><path d="M20.2,23.6s-3.5,7.4-8.3.9h0c-4.8-6.5-8.3.9-8.3.9" fill="none" stroke="#c7e7ed" stroke-miterlimit="10" stroke-width="0.96"/><path d="M36.1,23.1s-3.5,7.4-8.3.9h0c-4.8-6.5-8.3.9-8.3.9" fill="none" stroke="#c7e7ed" stroke-miterlimit="10" stroke-width="0.96"/><path d="M51.6,23.1s-3.5,7.4-8.3.9h0c-4.8-6.5-8.3.9-8.3.9" fill="none" stroke="#c7e7ed" stroke-miterlimit="10" stroke-width="0.96"/><path d="M67.5,22.6s-3.5,7.4-8.3.9h0c-4.8-6.5-8.3.9-8.3.9" fill="none" stroke="#c7e7ed" stroke-miterlimit="10" stroke-width="0.96"/><path d="M20.2,14.6s-3.5,7.4-8.3.9h0c-4.8-6.5-8.3.9-8.3.9" fill="none" stroke="#c7e7ed" stroke-miterlimit="10" stroke-width="0.96"/><path d="M36.1,14.1s-3.5,7.4-8.3.9h0c-4.8-6.5-8.3.9-8.3.9" fill="none" stroke="#c7e7ed" stroke-miterlimit="10" stroke-width="0.96"/><path d="M51.6,14.1s-3.5,7.4-8.3.9h0c-4.8-6.5-8.3.9-8.3.9" fill="none" stroke="#c7e7ed" stroke-miterlimit="10" stroke-width="0.96"/><path d="M67.5,13.6s-3.5,7.4-8.3.9h0c-4.8-6.5-8.3.9-8.3.9" fill="none" stroke="#c7e7ed" stroke-miterlimit="10" stroke-width="0.96"/></svg>